Coordinates
version=1
nRows=7
nColumns=40
inDegrees=yes

Units are S.I. units (second, meters, Newtons, ...)
If the header above contains a line with 'inDegrees', this indicates whether rotational values are in degrees (yes) or radians (no).

endheader
time	pelvis_tilt	pelvis_list	pelvis_rotation	pelvis_tx	pelvis_ty	pelvis_tz	hip_flexion_r	hip_adduction_r	hip_rotation_r	knee_angle_r	knee_angle_r_beta	ankle_angle_r	subtalar_angle_r	mtp_angle_r	hip_flexion_l	hip_adduction_l	hip_rotation_l	knee_angle_l	knee_angle_l_beta	ankle_angle_l	subtalar_angle_l	mtp_angle_l	lumbar_extension	lumbar_bending	lumbar_rotation	arm_flex_r	arm_add_r	arm_rot_r	elbow_flex_r	pro_sup_r	wrist_flex_r	wrist_dev_r	arm_flex_l	arm_add_l	arm_rot_l	elbow_flex_l	pro_sup_l	wrist_flex_l	wrist_dev_l
      9.97500000	    -26.61938307	     -5.11011008	      7.01117530	     -0.38616261	      0.85431090	      0.60336374	     51.14772226	    -13.07491173	    -18.23113844	     25.22538992	      0.44026611	      2.77023489	      0.00000000	      0.00000000	     54.08678799	    -11.10288972	     -4.09586756	     21.24283021	      0.37075733	     -1.99914863	      0.00000000	      0.00000000	    -26.91912135	      1.93600604	     -4.90762162	     40.22264323	      0.19010516	      2.05985580	     12.40041302	     37.58395565	      0.00000000	      0.00000000	     41.87484504	     -4.39918090	    -11.49480618	     11.45428075	     32.81469107	      0.00000000	      0.00000000
      9.98000000	    -27.04128749	     -5.08118690	      6.87088956	     -0.38734453	      0.85359389	      0.60367036	     51.66316731	    -13.00452226	    -17.91571111	     25.09336349	      0.43796181	      2.49410464	      0.00000000	      0.00000000	     54.50249782	    -11.11143700	     -4.12324160	     21.07451308	      0.36781964	     -2.32522589	      0.00000000	      0.00000000	    -26.80400723	      1.82072900	     -4.81489759	     39.77901591	     -0.00559967	      2.08045314	     13.60831129	     37.91814510	      0.00000000	      0.00000000	     41.78913123	     -4.52762066	    -10.47520079	     11.89242377	     33.32663522	      0.00000000	      0.00000000
      9.98500000	    -27.40418379	     -5.07093547	      6.80202661	     -0.38849825	      0.85275283	      0.60384903	     52.18453679	    -13.03891427	    -17.85041981	     25.19567081	      0.43974741	      2.49294686	      0.00000000	      0.00000000	     54.95703470	    -11.10009884	     -4.13417404	     21.11627516	      0.36854853	     -2.34747009	      0.00000000	      0.00000000	    -26.73202653	      1.74025799	     -4.64256732	     39.86255880	     -0.14108383	      2.11607358	     13.83930857	     38.11582494	      0.00000000	      0.00000000	     42.11442996	     -4.50625369	     -9.66913748	     11.74684580	     33.63413770	      0.00000000	      0.00000000
      9.99000000	    -27.88749942	     -5.01422073	      6.64191422	     -0.38963984	      0.85165015	      0.60422990	     52.89186339	    -13.05107507	    -17.64375751	     25.39444942	      0.44321675	      2.55911893	      0.00000000	      0.00000000	     55.55265517	    -11.15685187	     -4.37294130	     21.25403592	      0.37095291	     -2.29709435	      0.00000000	      0.00000000	    -26.51376963	      1.56094570	     -4.50926217	     40.06427183	     -0.20394362	      2.46296367	     13.81574741	     38.38176428	      0.00000000	      0.00000000	     42.38690021	     -4.60268561	     -8.78665376	     11.42862217	     34.06272481	      0.00000000	      0.00000000
      9.99500000	    -28.39484741	     -5.03964867	      6.54356998	     -0.39089690	      0.85055878	      0.60448279	     53.55636254	    -13.03497211	    -17.50468607	     25.44664136	      0.44412768	      2.48974290	      0.00000000	      0.00000000	     56.19442178	    -11.18610964	     -4.38765002	     21.33781547	      0.37241514	     -2.37429376	      0.00000000	      0.00000000	    -26.27457325	      1.49073924	     -4.37309343	     40.13063193	     -0.28973488	      2.40474825	     14.04760311	     38.66434481	      0.00000000	      0.00000000	     42.47864796	     -4.68356985	     -7.64517157	     11.56543485	     34.58241870	      0.00000000	      0.00000000
     10.00000000	    -28.91965564	     -5.20987387	      6.35796160	     -0.39192563	      0.84955464	      0.60478930	     54.15656396	    -12.82358035	    -17.43192585	     25.34977653	      0.44243707	      2.28524141	      0.00000000	      0.00000000	     56.87997116	    -11.38791112	     -4.41693238	     21.44028537	      0.37420357	     -2.45483635	      0.00000000	      0.00000000	    -25.98435362	      1.62009641	     -4.48700891	     41.95648432	      0.39715576	      2.09496669	     11.25963666	     38.19490674	      0.00000000	      0.00000000	     42.44853767	     -4.67742514	    -10.03560351	     12.10007631	     33.98137023	      0.00000000	      0.00000000
     10.00500000	    -29.40803327	     -5.40071486	      6.33382754	     -0.39314592	      0.84855781	      0.60481732	     54.72704585	    -12.75584642	    -17.50010896	     25.33402553	      0.44216216	      2.15203191	      0.00000000	      0.00000000	     57.55158695	    -11.43756796	     -4.20102790	     21.48962159	      0.37506465	     -2.54605523	      0.00000000	      0.00000000	    -25.76419414	      1.81599412	     -4.48586051	     41.98726252	      0.37481028	      2.09478626	     11.72731427	     37.37223944	      0.00000000	      0.00000000	     43.31673962	     -4.44330659	    -12.56241775	     11.38487289	     32.35747078	      0.00000000	      0.00000000
